<svg width="1145" height="989" viewBox="0 0 1145 989" fill="none" xmlns="http://www.w3.org/2000/svg">
<circle cx="573.5" cy="416.5" r="437.5" fill="#F4F5FB"/>
<circle cx="574" cy="416" r="155" stroke="#FBFEFF" stroke-width="60"/>
<mask id="mask0" mask-type="alpha" maskUnits="userSpaceOnUse" x="267" y="109" width="525" height="615">
<path d="M791.935 199.065C756.607 163.737 713.203 137.549 665.479 122.767C617.755 107.985 567.147 105.054 518.036 114.229C468.924 123.403 422.787 144.405 383.617 175.419C344.448 206.433 313.425 246.523 293.233 292.223C273.041 337.922 264.288 387.852 267.731 437.695C271.175 487.537 286.711 535.79 312.996 578.278C339.281 620.766 375.523 656.209 418.586 681.541C461.648 706.874 510.235 721.332 560.142 723.665L574.5 416.5L791.935 199.065Z" fill="#C4C4C4"/>
</mask>
<g mask="url(#mask0)">
<circle cx="574.5" cy="416.5" r="277.5" stroke="#FBFEFF" stroke-width="60"/>
</g>
<mask id="mask1" mask-type="alpha" maskUnits="userSpaceOnUse" x="574" y="211" width="309" height="513">
<path d="M574.5 724C633.887 724 692.004 706.803 741.829 674.487C791.654 642.171 831.055 596.118 855.272 541.893C879.489 487.668 887.486 427.59 878.296 368.918C869.107 310.246 843.124 255.491 803.488 211.266L574.5 416.5V724Z" fill="#C4C4C4"/>
</mask>
<g mask="url(#mask1)">
<circle cx="574.5" cy="416.5" r="277.5" stroke="#91BE54" stroke-width="60"/>
</g>
<mask id="mask2" mask-type="alpha" maskUnits="userSpaceOnUse" x="204" y="-21" width="809" height="875">
<mask id="path-7-inside-1" mask-type="luminance" fill="white">
<path d="M225.065 679.752C281.19 754.251 359.655 808.862 449.01 835.616C538.365 862.371 633.932 859.867 721.763 828.471C809.594 797.074 885.093 738.429 937.24 661.094C989.387 583.758 1015.45 491.781 1011.63 398.585C1007.81 305.389 974.309 215.853 916.009 143.044C857.708 70.2351 777.664 17.9645 687.558 -6.13938C597.453 -30.2432 502.001 -24.9185 415.135 9.05773C328.27 43.0339 254.536 103.883 204.695 182.725L574.5 416.5L225.065 679.752Z"/>
</mask>
<path d="M225.065 679.752C281.19 754.251 359.655 808.862 449.01 835.616C538.365 862.371 633.932 859.867 721.763 828.471C809.594 797.074 885.093 738.429 937.24 661.094C989.387 583.758 1015.45 491.781 1011.63 398.585C1007.81 305.389 974.309 215.853 916.009 143.044C857.708 70.2351 777.664 17.9645 687.558 -6.13938C597.453 -30.2432 502.001 -24.9185 415.135 9.05773C328.27 43.0339 254.536 103.883 204.695 182.725L574.5 416.5L225.065 679.752Z" fill="#C4C4C4" stroke="#3967B1" stroke-width="120" mask="url(#path-7-inside-1)"/>
</mask>
<g mask="url(#mask2)">
<circle cx="574.5" cy="416.5" r="407.5" stroke="#3967B1" stroke-width="60"/>
</g>
<mask id="mask3" mask-type="alpha" maskUnits="userSpaceOnUse" x="136" y="195" width="439" height="474">
<mask id="path-9-inside-2" mask-type="luminance" fill="white">
<path d="M196.669 195.933C154.425 268.297 133.85 351.27 137.391 434.986C140.931 518.703 168.438 599.642 216.641 668.181L574.5 416.5L196.669 195.933Z"/>
</mask>
<path d="M196.669 195.933C154.425 268.297 133.85 351.27 137.391 434.986C140.931 518.703 168.438 599.642 216.641 668.181L574.5 416.5L196.669 195.933Z" fill="#C4C4C4" stroke="#FBFEFF" stroke-width="120" mask="url(#path-9-inside-2)"/>
</mask>
<g mask="url(#mask3)">
<circle cx="574.5" cy="416.5" r="407.5" stroke="#FBFEFF" stroke-width="60"/>
</g>
<mask id="mask4" mask-type="alpha" maskUnits="userSpaceOnUse" x="72" y="416" width="705" height="573">
<path d="M72.9426 696.14C140.087 816.089 248.148 907.874 377.381 954.724C506.614 1001.57 648.39 1000.36 776.802 951.306L572.5 416.5L72.9426 696.14Z" fill="#C4C4C4"/>
</mask>
<g mask="url(#mask4)">
<circle cx="572.5" cy="416.5" r="542.5" stroke="#91BE54" stroke-width="60"/>
</g>
<mask id="mask5" mask-type="alpha" maskUnits="userSpaceOnUse" x="-1" y="2" width="574" height="683">
<path d="M66.4126 684.141C8.14251 573.957 -12.5765 447.767 7.40226 324.735C27.3811 201.704 86.9661 88.5533 177.108 2.46959L572.5 416.5L66.4126 684.141Z" fill="#C4C4C4"/>
</mask>
<g mask="url(#mask5)">
<circle cx="572.5" cy="416.5" r="542.5" stroke="#FBFEFF" stroke-width="60"/>
</g>
</svg>
