<svg width="399" height="140" viewBox="0 0 399 140" fill="none" xmlns="http://www.w3.org/2000/svg">
<g clip-path="url(#clip0)">
<path fill-rule="evenodd" clip-rule="evenodd" d="M46 35.2626C43.0033 35.2626 40.3062 36.463 38.3583 38.4137C36.4104 40.3644 35.2117 43.0654 35.2117 46.0664H36.8599C36.8599 43.5155 37.9088 41.2647 39.557 39.5391C41.2052 37.8885 43.5277 36.8382 46.0749 36.8382C48.6221 36.8382 50.8697 37.8885 52.5928 39.5391C54.316 41.1897 55.2899 43.5155 55.2899 46.0664C55.2899 48.6174 54.241 50.8682 52.5928 52.5938C50.9446 54.2444 48.6221 55.2947 46.0749 55.2947C34.3127 55.2947 23.7492 60.0214 16.0326 67.7492C8.24104 75.4019 3.52117 86.0557 3.52117 97.8349V140H5.16938V97.8349C5.16938 86.5059 9.73941 76.3022 17.1564 68.9496C24.5733 61.522 34.7622 56.9453 46 56.9453C48.9967 56.9453 51.6938 55.7449 53.6417 53.7942C55.5896 51.8435 56.7883 49.1425 56.7883 46.1415C56.7883 43.1404 55.5896 40.4394 53.6417 38.4887C51.6938 36.463 48.9967 35.2626 46 35.2626ZM46 0C58.7362 0 70.1987 5.17685 78.5147 13.5048C86.8306 21.8328 92 33.3869 92 46.0664C92 58.821 86.8306 70.3001 78.5147 78.6281C70.1987 86.956 58.6612 92.1329 46 92.1329C44.4267 92.1329 43.0033 92.7331 42.0293 93.7835C40.9805 94.8339 40.3811 96.2594 40.3811 97.7599V139.925H38.7329V97.7599C38.7329 95.7342 39.557 93.9335 40.9055 92.5831C42.2541 91.2326 44.0521 90.4073 46.0749 90.4073C58.3616 90.4073 69.4495 85.4555 77.4658 77.4276C85.4821 69.3998 90.4267 58.2958 90.4267 45.9914C90.4267 33.687 85.4821 22.5831 77.4658 14.5552C69.3746 6.60236 58.2866 1.65059 46 1.65059C33.7134 1.65059 22.7003 6.60236 14.6091 14.6302C6.59283 22.7331 1.64821 33.8371 1.64821 46.0664H0C0 33.3119 5.16938 21.8328 13.4853 13.5048C21.8013 5.17685 33.3388 0 46 0ZM46 3.52626C57.7622 3.52626 68.3257 8.25295 76.0423 15.9807C83.7589 23.7085 88.4788 34.2872 88.4788 46.0664C88.4788 57.8457 83.7589 68.4244 76.0423 76.1522C68.3257 83.8799 57.7622 88.6066 46 88.6066C43.4528 88.6066 41.2052 89.657 39.4821 91.3076C37.8339 92.9582 36.785 95.284 36.785 97.8349V140H35.2117V97.8349C35.2117 94.8339 36.4104 92.1329 38.3583 90.1822C40.3062 88.2315 43.0033 87.0311 46 87.0311C57.3127 87.0311 67.5016 82.4544 74.8436 75.0268C82.2606 67.5991 86.8306 57.3955 86.8306 46.1415C86.8306 34.8124 82.2606 24.6088 74.8436 17.2562C67.4267 9.82851 57.2378 5.25187 46 5.25187C34.6873 5.25187 24.4984 9.82851 17.1564 17.2562C9.73941 24.6838 5.16938 34.8875 5.16938 46.1415H3.52117C3.52117 34.3623 8.24104 23.7835 15.9577 16.0557C23.6743 8.25295 34.3127 3.52626 46 3.52626ZM46 7.05252C56.7883 7.05252 66.5277 11.4041 73.57 18.4566C80.6124 25.5091 84.9576 35.2626 84.9576 46.0664C84.9576 56.8703 80.6124 66.6238 73.57 73.6763C66.5277 80.7288 56.7883 85.0804 46 85.0804C42.4788 85.0804 39.3322 86.5059 37.0098 88.8317C34.6873 91.1575 33.2638 94.3087 33.2638 97.8349V140H31.6156V97.8349C31.6156 93.8585 33.1889 90.2572 35.8111 87.7063C38.4332 85.0804 41.9544 83.5048 45.9251 83.5048C56.2638 83.5048 65.5537 79.3033 72.2964 72.5509C79.0391 65.7985 83.2345 56.4201 83.2345 46.1415C83.2345 35.7878 79.0391 26.4845 72.2964 19.732C65.5537 12.9796 56.1889 8.77813 45.9251 8.77813C35.6612 8.77813 26.2964 12.9796 19.5537 19.732C12.8111 26.4845 8.61563 35.8628 8.61563 46.1415H7.04234C7.04234 35.2626 11.3876 25.5091 18.43 18.4566C25.4723 11.4041 35.2117 7.05252 46 7.05252ZM46 10.5788C55.8143 10.5788 64.6547 14.5552 71.0977 21.0075C77.5407 27.4598 81.5114 36.313 81.5114 46.1415C81.5114 55.97 77.5407 64.8231 71.0977 71.2754C64.6547 77.7278 55.8143 81.7042 46 81.7042C41.5049 81.7042 37.4593 83.5048 34.5375 86.4309C31.6156 89.3569 29.8176 93.4083 29.8176 97.91V140.075H28.1694V97.91C28.1694 92.9582 30.1922 88.5316 33.4137 85.2304C36.6352 82.0043 41.1303 79.9786 46.0749 79.9786C55.4397 79.9786 63.8306 76.1522 69.9739 70.075C76.1173 63.9228 79.8632 55.5198 79.8632 46.1415C79.8632 36.7631 76.0423 28.3601 69.9739 22.2079C63.8306 16.0557 55.4397 12.3044 46.0749 12.3044C36.7101 12.3044 28.3192 16.1308 22.1759 22.2079C15.9577 28.2851 12.2117 36.7631 12.2117 46.0664H10.5635C10.5635 36.2379 14.5342 27.3848 20.9772 20.9325C27.3453 14.5552 36.1857 10.5788 46 10.5788ZM46 14.105C54.8404 14.105 62.7818 17.7063 68.5505 23.4834C74.3941 29.2604 77.9153 37.2133 77.9153 46.0664C77.9153 54.9196 74.3192 62.8724 68.5505 68.6495C62.7818 74.5016 54.8404 78.0279 46 78.0279C40.5309 78.0279 35.5863 80.2036 32.0651 83.8049C28.4691 87.4062 26.2964 92.358 26.2964 97.7599V139.925H24.6482V97.7599C24.6482 91.8328 27.0456 86.5059 30.9414 82.6045C34.8371 78.7031 40.1563 76.3022 46.0749 76.3022C54.4658 76.3022 62.0326 72.926 67.5016 67.4491C72.9707 61.9721 76.342 54.3944 76.342 45.9914C76.342 37.5884 72.8958 30.0857 67.4267 24.6088C61.9576 19.1318 54.3909 15.7556 46 15.7556C37.6091 15.7556 30.0423 19.1318 24.5733 24.6088C19.1042 30.0857 15.7329 37.6634 15.7329 46.0664H14.0847C14.0847 37.2133 17.6808 29.2604 23.4495 23.4834C29.2182 17.7063 37.1596 14.105 46 14.105ZM46 17.6313C53.8664 17.6313 60.9837 20.7824 66.0782 25.9593C71.2476 31.1361 74.3941 38.1886 74.3941 46.0664C74.3941 53.9443 71.2476 61.0718 66.0782 66.1736C60.9088 71.3505 53.8664 74.5016 46 74.5016C39.557 74.5016 33.7883 77.1275 29.5928 81.329C25.3974 85.5305 22.7752 91.3826 22.7752 97.7599V139.925H21.127V97.7599C21.127 90.8574 23.899 84.6302 28.3941 80.1286C32.8893 75.627 39.1075 72.851 46 72.851C53.4169 72.851 60.0847 69.8499 64.9544 64.9732C69.8241 60.0965 72.8208 53.4191 72.8208 45.9914C72.8208 38.5638 69.8241 31.8864 64.9544 27.0096C60.0847 22.1329 53.4169 19.1318 46 19.1318C38.5831 19.1318 31.9153 22.1329 27.0456 27.0096C22.1759 31.8864 19.1792 38.5638 19.1792 45.9914H17.5309C17.5309 38.1136 20.6775 30.9861 25.8469 25.8842C31.0912 20.7824 38.1335 17.6313 46 17.6313ZM46 21.1576C52.8925 21.1576 59.1107 23.9335 63.6059 28.4352C68.101 32.9368 70.873 39.164 70.873 46.0664C70.873 52.9689 68.101 59.1961 63.6059 63.6977C59.1107 68.1993 52.8925 70.9753 46 70.9753C38.5831 70.9753 31.9153 73.9764 27.0456 78.8531C22.1759 83.7299 19.1792 90.4073 19.1792 97.8349V140H17.5309V97.8349C17.5309 89.9571 20.6775 82.8296 25.8469 77.7278C31.0163 72.5509 38.0586 69.3998 45.9251 69.3998C52.3681 69.3998 58.1368 66.7738 62.3322 62.5723C66.5277 58.3708 69.1498 52.5187 69.1498 46.1415C69.1498 39.6892 66.5277 33.9121 62.3322 29.7106C58.1368 25.5091 52.2932 22.8832 45.9251 22.8832C39.4821 22.8832 33.7134 25.5091 29.5179 29.7106C25.3225 33.9121 22.7003 39.7642 22.7003 46.1415H21.0521C21.0521 39.239 23.8241 33.0118 28.3192 28.5102C32.8892 23.9335 39.1075 21.1576 46 21.1576ZM46 24.6838C51.9186 24.6838 57.2378 27.0847 61.1335 30.9861C65.0293 34.8875 67.4267 40.2144 67.4267 46.1415C67.4267 52.0686 65.0293 57.3955 61.1335 61.2969C57.2378 65.1983 51.9186 67.5991 46 67.5991C37.6091 67.5991 30.0423 70.9753 24.5733 76.4523C19.1042 81.9293 15.7329 89.507 15.7329 97.91V140.075H14.0847V97.91C14.0847 89.0568 17.6808 81.104 23.4495 75.3269C29.2182 69.5498 37.2345 65.9485 46 65.9485C51.4691 65.9485 56.4137 63.7728 59.9348 60.1715C63.5309 56.5702 65.7036 51.6935 65.7036 46.2165C65.7036 40.7395 63.5309 35.7127 59.9348 32.1115C56.3388 28.5102 51.4691 26.3344 46 26.3344C40.5309 26.3344 35.6612 28.5102 32.0651 32.1115C28.4691 35.7127 26.2964 40.5895 26.2964 46.0664H24.6482C24.6482 40.1393 27.0456 34.8124 30.9414 30.911C34.7622 27.0847 40.0814 24.6838 46 24.6838ZM46 28.2101C50.9446 28.2101 55.3648 30.2358 58.6612 33.4619C61.8827 36.6881 63.9055 41.1897 63.9055 46.1415C63.9055 51.0932 61.8827 55.5198 58.6612 58.821C55.4397 62.0472 50.9446 64.0729 46 64.0729C36.6352 64.0729 28.2443 67.8242 22.101 73.9764C15.9577 80.1286 12.2117 88.5316 12.2117 97.91V140.075H10.5635V97.91C10.5635 88.0814 14.5342 79.2283 20.9772 72.776C27.3453 66.2486 36.1857 62.2722 46 62.2722C50.4951 62.2722 54.5407 60.4716 57.4625 57.5455C60.3844 54.6195 62.1824 50.5681 62.1824 46.0664C62.1824 41.5648 60.3844 37.5134 57.4625 34.5873C54.5407 31.6613 50.4951 29.8607 46 29.8607C41.5049 29.8607 37.4593 31.6613 34.5375 34.5873C31.6156 37.5134 29.8176 41.5648 29.8176 46.0664H28.1694C28.1694 41.1147 30.1922 36.6881 33.4137 33.3869C36.6352 30.1608 41.0554 28.2101 46 28.2101ZM46 31.7363C49.9707 31.7363 53.5668 33.3119 56.114 35.9378C58.7362 38.5638 60.3094 42.09 60.3094 46.0664C60.3094 50.0429 58.7362 53.6442 56.114 56.1951C53.4919 58.821 49.9707 60.3966 46 60.3966C35.6612 60.3966 26.3713 64.5981 19.6287 71.3505C12.886 78.1029 8.69055 87.4812 8.69055 97.7599V139.925H7.04234V97.7599C7.04234 86.956 11.3876 77.2026 18.43 70.15C25.4723 63.1726 35.2117 58.821 46 58.821C49.5212 58.821 52.6678 57.3955 54.9902 55.0697C57.3127 52.7438 58.7362 49.5927 58.7362 46.0664C58.7362 42.5402 57.3127 39.3891 54.9902 37.0632C52.6678 34.7374 49.5212 33.3119 46 33.3119C42.4788 33.3119 39.3322 34.7374 37.0098 37.0632C34.6873 39.3891 33.2638 42.5402 33.2638 46.0664H31.6156C31.6156 42.09 33.1889 38.4887 35.8111 35.9378C38.4332 33.3119 42.0293 31.7363 46 31.7363ZM46 38.7888C48.0228 38.7888 49.8208 39.6141 51.1694 40.9646C52.5179 42.3151 53.342 44.1157 53.342 46.1415C53.342 48.1672 52.5179 49.9678 51.1694 51.3183C49.8208 52.6688 48.0228 53.4941 46 53.4941C33.7134 53.4941 22.6254 58.4459 14.6091 66.4737C6.59283 74.4266 1.64821 85.5305 1.64821 97.8349V140H0V97.8349C0 85.0804 5.16938 73.6013 13.4853 65.2733C21.8013 56.9453 33.3388 51.7685 46 51.7685C47.5733 51.7685 48.9967 51.1683 49.9707 50.1179C51.0195 49.0675 51.6189 47.642 51.6189 46.1415C51.6189 44.5659 51.0195 43.1404 49.9707 42.1651C48.9218 41.1147 47.4984 40.5145 46 40.5145C44.5016 40.5145 43.0033 41.1147 42.0293 42.1651C40.9805 43.2154 40.3811 44.6409 40.3811 46.1415H38.7329C38.7329 44.1157 39.557 42.3151 40.9055 40.9646C42.1791 39.6141 43.9772 38.7888 46 38.7888Z" fill="#3967B1"/>
<path d="M90.6515 99.5605H40.3811V101.211H90.6515V99.5605Z" fill="#3967B1"/>
<path d="M90.6515 103.087H40.3811V104.737H90.6515V103.087Z" fill="#3967B1"/>
<path d="M90.6515 106.613H40.3811V108.264H90.6515V106.613Z" fill="#3967B1"/>
<path d="M90.6515 110.139H40.3811V111.79H90.6515V110.139Z" fill="#3967B1"/>
<path d="M90.6515 113.666H40.3811V115.316H90.6515V113.666Z" fill="#3967B1"/>
<path d="M90.6515 117.192H40.3811V118.842H90.6515V117.192Z" fill="#3967B1"/>
<path d="M90.6515 120.718H40.3811V122.369H90.6515V120.718Z" fill="#3967B1"/>
<path d="M90.6515 124.244H40.3811V125.895H90.6515V124.244Z" fill="#3967B1"/>
<path d="M90.6515 127.771H40.3811V129.421H90.6515V127.771Z" fill="#3967B1"/>
<path d="M90.6515 131.297H40.3811V132.947H90.6515V131.297Z" fill="#3967B1"/>
<path d="M90.6515 134.823H40.3811V136.474H90.6515V134.823Z" fill="#3967B1"/>
<path d="M90.6515 138.349H40.3811V140H90.6515V138.349Z" fill="#3967B1"/>
<path opacity="0.49" d="M45.3257 99.5605H40.3811V140H45.3257V99.5605Z" fill="#082E41"/>
</g>
<path fill-rule="evenodd" clip-rule="evenodd" d="M195 44.8643C195 32.4426 189.887 21.263 181.661 13.1524C173.436 5.04175 162.098 0 149.5 0C136.976 0 125.564 5.04175 117.339 13.1524C109.113 21.263 104 32.5157 104 44.8643V95.1357C104 107.557 109.113 118.737 117.339 126.848C125.564 134.958 136.976 140 149.5 140C162.098 140 173.436 134.958 181.661 126.848C189.887 118.737 195 107.484 195 95.1357V44.8643H193.37V95.1357C193.37 107.119 188.479 117.933 180.55 125.752C172.621 133.57 161.653 138.392 149.5 138.392C137.347 138.392 126.379 133.57 118.45 125.752C110.521 117.86 105.63 107.046 105.63 95.1357V44.8643C105.63 32.9541 110.521 22.0668 118.45 14.2484C126.454 6.43006 137.421 1.60752 149.5 1.60752C161.579 1.60752 172.621 6.43006 180.55 14.2484C188.479 22.0668 193.37 32.881 193.37 44.8643H195ZM155.132 95.1357V44.8643H156.762V95.1357C156.762 97.1086 155.947 98.8622 154.613 100.177C153.279 101.493 151.501 102.296 149.5 102.296C147.499 102.296 145.721 101.493 144.387 100.177C143.053 98.8622 142.238 97.1086 142.238 95.1357V44.8643C142.238 42.8914 143.053 41.1378 144.387 39.8225C145.721 38.5073 147.499 37.7035 149.5 37.7035C151.501 37.7035 153.279 38.5073 154.613 39.8225C155.947 41.1378 156.762 42.8914 156.762 44.8643H155.132C155.132 43.3299 154.539 41.9415 153.502 40.9916C152.464 39.9687 151.056 39.3841 149.574 39.3841C148.018 39.3841 146.61 39.9687 145.647 40.9916C144.609 42.0146 144.016 43.4029 144.016 44.8643V95.1357C144.016 96.6701 144.609 98.0585 145.647 99.0083C146.684 100.031 148.092 100.616 149.574 100.616C151.13 100.616 152.538 100.031 153.502 99.0083C154.465 98.0585 155.132 96.6701 155.132 95.1357ZM158.615 95.1357V44.8643H160.245V95.1357C160.245 98.0584 159.059 100.689 157.133 102.589C155.206 104.489 152.538 105.658 149.574 105.658C146.61 105.658 143.942 104.489 142.015 102.589C140.089 100.689 138.903 98.0584 138.903 95.1357V44.8643C138.903 41.9415 140.089 39.3111 142.015 37.4113C143.942 35.5115 146.61 34.3424 149.574 34.3424C152.538 34.3424 155.206 35.5115 157.133 37.4113C159.059 39.3111 160.245 41.9415 160.245 44.8643H158.615C158.615 42.38 157.577 40.1879 155.947 38.5073C154.317 36.8998 152.02 35.8768 149.5 35.8768C146.98 35.8768 144.757 36.8998 143.053 38.5073C141.423 40.1148 140.385 42.38 140.385 44.8643V95.1357C140.385 97.62 141.423 99.8121 143.053 101.493C144.683 103.1 146.98 104.123 149.5 104.123C152.02 104.123 154.243 103.1 155.947 101.493C157.577 99.8121 158.615 97.62 158.615 95.1357ZM162.098 95.1357V44.8643H163.728V95.1357C163.728 99.0083 162.172 102.516 159.578 105C156.985 107.557 153.428 109.092 149.574 109.092C145.647 109.092 142.09 107.557 139.57 105C136.976 102.443 135.42 99.0083 135.42 95.1357V44.8643C135.42 40.9916 136.976 37.4843 139.57 35C142.164 32.4426 145.647 30.9081 149.574 30.9081C153.502 30.9081 157.059 32.4426 159.578 35C162.172 37.5574 163.728 41.0647 163.728 44.8643H162.098C162.098 41.4301 160.69 38.3612 158.393 36.096C156.095 33.8309 152.983 32.4426 149.5 32.4426C146.017 32.4426 142.905 33.8309 140.607 36.096C138.31 38.3612 136.902 41.4301 136.902 44.8643V95.1357C136.902 98.5699 138.31 101.639 140.607 103.904C142.905 106.169 146.017 107.557 149.5 107.557C152.983 107.557 156.095 106.169 158.393 103.904C160.69 101.639 162.098 98.5699 162.098 95.1357ZM165.507 95.1357V44.8643H167.137V95.1357C167.137 99.9582 165.136 104.269 161.95 107.484C158.763 110.626 154.317 112.599 149.426 112.599C144.535 112.599 140.163 110.626 136.902 107.484C133.716 104.342 131.715 99.9582 131.715 95.1357V44.8643C131.715 40.0418 133.716 35.7307 136.902 32.5157C140.089 29.3737 144.535 27.4008 149.426 27.4008C154.317 27.4008 158.689 29.3737 161.95 32.5157C165.136 35.6576 167.137 40.0418 167.137 44.8643H165.507C165.507 40.4802 163.728 36.5344 160.838 33.6848C157.948 30.8351 153.946 29.0814 149.5 29.0814C145.054 29.0814 141.052 30.8351 138.162 33.6848C135.272 36.5344 133.493 40.4802 133.493 44.8643V95.1357C133.493 99.5198 135.272 103.466 138.162 106.315C141.052 109.165 145.054 110.919 149.5 110.919C153.946 110.919 157.948 109.165 160.838 106.315C163.728 103.466 165.507 99.5198 165.507 95.1357ZM168.989 95.1357V44.8643H170.62V95.1357C170.62 100.908 168.248 106.096 164.395 109.896C160.542 113.695 155.28 116.033 149.426 116.033C143.572 116.033 138.31 113.695 134.457 109.896C130.603 106.096 128.232 100.908 128.232 95.1357V44.8643C128.232 39.0919 130.603 33.904 134.457 30.1044C138.31 26.3048 143.572 23.9666 149.426 23.9666C155.28 23.9666 160.542 26.3048 164.395 30.1044C168.248 33.904 170.62 39.0919 170.62 44.8643H168.989C168.989 39.5303 166.84 34.7077 163.283 31.2735C159.726 27.7662 154.836 25.6472 149.5 25.6472C144.09 25.6472 139.2 27.7662 135.717 31.2735C132.16 34.7808 130.011 39.5303 130.011 44.8643V95.1357C130.011 100.47 132.16 105.292 135.717 108.727C139.274 112.234 144.164 114.353 149.5 114.353C154.91 114.353 159.8 112.234 163.283 108.727C166.84 105.219 168.989 100.47 168.989 95.1357ZM172.472 95.1357V44.8643H174.103V95.1357C174.103 101.858 171.361 107.923 166.914 112.307C162.468 116.691 156.318 119.395 149.5 119.395C142.682 119.395 136.532 116.691 132.086 112.307C127.639 107.923 124.897 101.858 124.897 95.1357V44.8643C124.897 38.142 127.639 32.0772 132.086 27.6931C136.532 23.309 142.682 20.6054 149.5 20.6054C156.318 20.6054 162.468 23.309 166.914 27.6931C171.361 32.0772 174.103 38.142 174.103 44.8643H172.472C172.472 38.5804 169.879 32.9541 165.729 28.8622C161.579 24.7704 155.799 22.2129 149.5 22.2129C143.127 22.2129 137.421 24.7704 133.271 28.8622C129.121 32.9541 126.528 38.6534 126.528 44.8643V95.1357C126.528 101.42 129.121 107.046 133.271 111.138C137.421 115.23 143.201 117.787 149.5 117.787C155.873 117.787 161.579 115.23 165.729 111.138C169.953 107.046 172.472 101.42 172.472 95.1357ZM175.955 95.1357V44.8643H177.586V95.1357C177.586 102.808 174.473 109.749 169.36 114.718C164.247 119.76 157.281 122.829 149.5 122.829C141.719 122.829 134.679 119.76 129.64 114.718C124.527 109.676 121.414 102.808 121.414 95.1357V44.8643C121.414 37.1921 124.527 30.2505 129.64 25.2818C134.753 20.2401 141.719 17.1712 149.5 17.1712C157.281 17.1712 164.321 20.2401 169.36 25.2818C174.473 30.3236 177.586 37.1921 177.586 44.8643H175.955C175.955 37.6305 172.991 31.1273 168.174 26.3779C163.357 21.6284 156.762 18.7056 149.426 18.7056C142.09 18.7056 135.494 21.6284 130.678 26.3779C125.861 31.1273 122.897 37.6305 122.897 44.8643V95.1357C122.897 102.37 125.861 108.873 130.678 113.622C135.494 118.372 142.09 121.294 149.426 121.294C156.762 121.294 163.357 118.372 168.174 113.622C172.991 108.873 175.955 102.37 175.955 95.1357ZM179.438 95.1357V44.8643H181.068V95.1357C181.068 103.758 177.511 111.503 171.805 117.129C166.099 122.756 158.17 126.263 149.5 126.263C140.756 126.263 132.901 122.756 127.195 117.129C121.489 111.503 117.932 103.685 117.932 95.1357V44.8643C117.932 36.2422 121.489 28.4969 127.195 22.8706C132.901 17.2443 140.83 13.737 149.5 13.737C158.244 13.737 166.099 17.2443 171.805 22.8706C177.586 28.4969 181.068 36.2422 181.068 44.8643H179.438C179.438 36.6806 176.103 29.3006 170.694 23.9666C165.284 18.6326 157.8 15.3445 149.5 15.3445C141.2 15.3445 133.716 18.6326 128.306 23.9666C122.897 29.3006 119.562 36.6806 119.562 44.8643V95.1357C119.562 103.319 122.897 110.699 128.306 116.033C133.716 121.367 141.2 124.656 149.5 124.656C157.8 124.656 165.284 121.367 170.694 116.033C176.103 110.699 179.438 103.246 179.438 95.1357ZM182.921 95.1357V44.8643H184.551V95.1357C184.551 104.708 180.624 113.33 174.251 119.614C167.878 125.898 159.134 129.77 149.426 129.77C139.718 129.77 130.974 125.898 124.601 119.614C118.228 113.33 114.3 104.708 114.3 95.1357V44.8643C114.3 35.2923 118.228 26.6701 124.601 20.3862C130.974 14.1023 139.718 10.2296 149.426 10.2296C159.134 10.2296 167.878 14.1023 174.251 20.3862C180.624 26.6701 184.551 35.2923 184.551 44.8643H182.921C182.921 35.7307 179.216 27.547 173.139 21.5553C167.063 15.5637 158.763 11.9102 149.5 11.9102C140.237 11.9102 131.937 15.6367 125.861 21.5553C119.784 27.547 116.079 35.8038 116.079 44.8643V95.1357C116.079 104.269 119.784 112.453 125.861 118.445C131.937 124.436 140.237 128.09 149.5 128.09C158.763 128.09 167.063 124.363 173.139 118.445C179.216 112.453 182.921 104.196 182.921 95.1357ZM186.404 95.1357V44.8643H188.034V95.1357C188.034 105.658 183.736 115.157 176.77 122.025C169.805 128.894 160.171 133.132 149.5 133.132C138.829 133.132 129.195 128.894 122.23 122.025C115.264 115.157 110.966 105.585 110.966 95.1357V44.8643C110.966 34.3424 115.264 24.8434 122.23 17.9749C129.195 11.1065 138.829 6.86848 149.5 6.86848C160.171 6.86848 169.805 11.1065 176.77 17.9749C183.736 24.8434 188.034 34.3424 188.034 44.8643H186.404C186.404 34.7808 182.254 25.7203 175.585 19.1441C168.915 12.5679 159.652 8.47599 149.5 8.47599C139.274 8.47599 130.085 12.5679 123.415 19.1441C116.746 25.7203 112.596 34.8539 112.596 44.8643V95.1357C112.596 105.219 116.746 114.28 123.415 120.856C130.085 127.432 139.348 131.524 149.5 131.524C159.726 131.524 168.915 127.432 175.585 120.856C182.328 114.28 186.404 105.146 186.404 95.1357ZM189.887 95.1357V44.8643H191.517V95.1357C191.517 106.608 186.849 116.91 179.216 124.436C171.583 131.962 161.134 136.566 149.5 136.566C137.866 136.566 127.417 131.962 119.784 124.436C112.151 116.91 107.483 106.534 107.483 95.1357V44.8643C107.483 33.3925 112.151 23.0898 119.784 15.5637C127.417 8.03758 137.94 3.43424 149.5 3.43424C161.134 3.43424 171.583 8.03758 179.216 15.5637C186.849 23.0898 191.517 33.3925 191.517 44.8643H189.887C189.887 33.8309 185.366 23.8935 178.03 16.7328C170.694 9.49896 160.616 5.04175 149.5 5.04175C138.31 5.04175 128.232 9.49896 120.97 16.7328C113.634 23.9666 109.113 33.904 109.113 44.8643V95.1357C109.113 106.169 113.634 116.106 120.97 123.267C128.306 130.501 138.384 134.958 149.5 134.958C160.69 134.958 170.768 130.501 178.03 123.267C185.366 116.106 189.887 106.096 189.887 95.1357Z" fill="#3967B1"/>
<g clip-path="url(#clip1)">
<path fill-rule="evenodd" clip-rule="evenodd" d="M251.5 0C239.252 0 228.09 5.0365 220.046 13.1387C212.001 21.2409 207 32.4818 207 44.8175H208.594C208.594 32.8467 213.378 22.0438 221.133 14.2336C228.96 6.42336 239.686 1.60584 251.5 1.60584C263.386 1.60584 274.112 6.42336 281.867 14.2336C289.622 22.0438 294.406 32.8467 294.406 44.8175C294.406 53.5766 291.796 61.7518 287.375 68.6131C287.738 69.0511 288.028 69.562 288.39 70C293.246 62.8467 296.072 54.1606 296.072 44.8175C296.072 32.4088 291.072 21.2409 283.027 13.1387C274.91 5.0365 263.821 0 251.5 0ZM261.574 88.0292C261.647 88.1022 261.719 88.1752 261.792 88.3212C261.647 88.2482 261.647 88.1752 261.574 88.0292ZM259.907 88.8321C259.835 88.7591 259.835 88.6861 259.762 88.6131L259.907 88.8321Z" fill="#91BE54"/>
<path fill-rule="evenodd" clip-rule="evenodd" d="M251.5 3.43066C240.121 3.43066 229.902 8.0292 222.437 15.5475C214.972 23.0657 210.406 33.3577 210.406 44.8175H212.001C212.001 33.7956 216.422 23.8686 223.597 16.7153C230.772 9.48906 240.629 5.0365 251.5 5.0365C262.444 5.0365 272.301 9.48906 279.403 16.7153C286.578 23.9416 290.999 33.8686 290.999 44.8175C290.999 52.4818 288.825 59.708 285.056 65.7664C285.419 66.2044 285.781 66.6423 286.143 67.0803C290.202 60.6569 292.594 53.0657 292.594 44.8175C292.594 33.3577 288.028 23.0657 280.563 15.5475C273.17 8.0292 262.879 3.43066 251.5 3.43066ZM284.114 70C284.042 69.927 283.969 69.781 283.897 69.708L284.114 70ZM279.476 75.1095C279.403 75.0365 279.331 74.8905 279.258 74.8175C279.331 74.9635 279.403 75.0365 279.476 75.1095Z" fill="#91BE54"/>
<path fill-rule="evenodd" clip-rule="evenodd" d="M251.5 6.86133C241.064 6.86133 231.642 11.0949 224.829 17.9562C218.016 24.8175 213.813 34.3066 213.813 44.8175H215.407C215.407 34.7445 219.466 25.6934 225.989 19.1241C232.511 12.5548 241.571 8.46717 251.5 8.46717C261.502 8.46717 270.489 12.5548 277.011 19.1241C283.534 25.6934 287.593 34.8175 287.593 44.8175C287.593 51.5329 285.781 57.8102 282.665 63.1387C282.737 63.2117 282.882 63.3577 282.954 63.4307C283.244 63.7226 283.534 64.0146 283.824 64.3066C287.23 58.6132 289.187 51.8978 289.187 44.7445C289.187 34.2336 284.984 24.7445 278.171 17.8832C271.358 11.0949 261.937 6.86133 251.5 6.86133ZM256.573 82.1168C256.501 82.1168 256.428 82.0438 256.356 82.0438C256.356 82.0438 256.428 82.1168 256.573 82.1168Z" fill="#91BE54"/>
<path fill-rule="evenodd" clip-rule="evenodd" d="M251.5 10.292C242.006 10.292 233.454 14.1606 227.293 20.4379C221.133 26.7153 217.219 35.2555 217.219 44.8175H218.813C218.813 35.6934 222.51 27.5182 228.38 21.5328C234.323 15.5474 242.441 11.8978 251.5 11.8978C260.559 11.8978 268.677 15.6204 274.62 21.5328C280.563 27.5182 284.186 35.6934 284.186 44.8175C284.186 50.5839 282.664 56.0584 280.055 60.8029C280.49 61.1679 280.853 61.5328 281.287 61.8978C284.114 56.8613 285.781 51.0219 285.781 44.8175C285.781 35.2555 281.94 26.6423 275.707 20.365C269.474 14.0876 260.994 10.292 251.5 10.292ZM274.402 69.416C274.33 69.3431 274.257 69.2701 274.112 69.1971L274.402 69.416Z" fill="#91BE54"/>
<path fill-rule="evenodd" clip-rule="evenodd" d="M251.5 13.7226C242.948 13.7226 235.265 17.2263 229.685 22.8467C224.104 28.4672 220.625 36.2044 220.625 44.8175H222.22C222.22 36.6423 225.481 29.2701 230.772 23.9416C236.063 18.6131 243.383 15.3285 251.5 15.3285C259.617 15.3285 266.937 18.6131 272.228 23.9416C277.519 29.2701 280.78 36.6423 280.78 44.8175C280.78 49.854 279.548 54.5255 277.374 58.6861C277.809 58.9781 278.243 59.3431 278.678 59.635C281.07 55.2555 282.375 50.146 282.375 44.8175C282.375 36.2044 278.896 28.4672 273.315 22.8467C267.734 17.2263 260.052 13.7226 251.5 13.7226ZM276.866 62.5547C276.794 62.4817 276.649 62.4088 276.577 62.3358C276.649 62.4088 276.721 62.4817 276.866 62.5547ZM257.733 75.3285H257.66H257.733ZM254.834 74.5985C254.689 74.5985 254.544 74.5255 254.471 74.5255C254.544 74.5255 254.689 74.5985 254.834 74.5985ZM252.297 74.3796C252.152 74.3796 251.935 74.3796 251.79 74.3796C251.935 74.3066 252.08 74.3066 252.297 74.3796Z" fill="#91BE54"/>
<path fill-rule="evenodd" clip-rule="evenodd" d="M251.5 17.1533C243.89 17.1533 237.005 20.219 232.077 25.2555C227.076 30.292 224.032 37.1533 224.032 44.8175H225.626C225.626 37.5912 228.525 31.0949 233.236 26.3504C237.947 21.6058 244.397 18.6861 251.572 18.6861C258.748 18.6861 265.198 21.6058 269.909 26.3504C274.62 31.0949 277.519 37.5912 277.519 44.8175C277.519 49.1241 276.504 53.2117 274.62 56.7883C275.055 57.0803 275.562 57.3723 275.997 57.6642C277.954 53.7956 279.113 49.4891 279.113 44.8175C279.113 37.1533 276.069 30.219 271.068 25.2555C265.995 20.219 259.11 17.1533 251.5 17.1533ZM258.313 70L258.458 70.073L258.313 70ZM252.08 70.8759C252.007 70.8759 251.862 70.8759 251.79 70.8759C251.935 70.8759 252.007 70.8759 252.08 70.8759Z" fill="#91BE54"/>
<path fill-rule="evenodd" clip-rule="evenodd" d="M251.5 20.5839C244.832 20.5839 238.817 23.2847 234.468 27.6642C230.12 32.0438 227.438 38.1022 227.438 44.8175H229.033C229.033 38.5401 231.569 32.9197 235.628 28.8321C239.686 24.7445 245.34 22.1898 251.5 22.1898C257.733 22.1898 263.314 24.7445 267.372 28.8321C271.431 32.9197 273.967 38.6131 273.967 44.8175C273.967 48.5401 273.098 52.0438 271.503 55.1095C272.011 55.3284 272.445 55.6204 272.88 55.8394C274.547 52.5547 275.489 48.7591 275.489 44.8175C275.489 38.1022 272.808 32.0438 268.459 27.6642C264.183 23.2847 258.168 20.5839 251.5 20.5839ZM263.386 64.4525C263.531 64.5255 263.676 64.5255 263.821 64.5985C263.603 64.5255 263.458 64.5255 263.386 64.4525ZM264.038 64.7445C264.183 64.8175 264.328 64.8905 264.473 64.8905C264.256 64.8175 264.183 64.7445 264.038 64.7445ZM253.602 67.5912C253.457 67.5912 253.384 67.5912 253.239 67.5912H253.602ZM252.515 67.5182C252.442 67.5182 252.297 67.5182 252.225 67.5182H252.515Z" fill="#91BE54"/>
<path fill-rule="evenodd" clip-rule="evenodd" d="M251.5 24.0146C245.774 24.0146 240.629 26.3504 236.86 30.146C233.091 33.9416 230.772 39.1241 230.772 44.8905H232.366C232.366 39.562 234.468 34.7445 237.947 31.3139C241.426 27.8102 246.137 25.6934 251.428 25.6934C256.718 25.6934 261.502 27.8102 264.908 31.3139C268.387 34.8175 270.489 39.562 270.489 44.8905C270.489 48.1022 269.691 51.0949 268.314 53.7956C268.822 54.0146 269.329 54.2336 269.764 54.4525C271.213 51.6058 272.011 48.3941 272.011 44.9635C272.011 39.1971 269.691 34.0146 265.923 30.219C262.371 26.3504 257.226 24.0146 251.5 24.0146ZM268.822 55.6204L269.909 54.3795C269.691 54.8905 269.401 55.3285 269.112 55.7664L268.822 55.6204ZM267.01 56.7883C266.865 56.7153 266.72 56.6423 266.575 56.6423C266.72 56.7153 266.865 56.7883 267.01 56.7883ZM257.298 64.5985C257.226 64.5985 257.081 64.5255 257.008 64.5255C257.081 64.5255 257.226 64.5985 257.298 64.5985ZM254.616 64.2336C254.471 64.2336 254.399 64.2336 254.254 64.2336H254.616ZM254.254 64.1606C254.109 64.1606 254.037 64.1606 253.892 64.1606C254.037 64.1606 254.109 64.1606 254.254 64.1606ZM253.457 64.0876C253.312 64.0876 253.239 64.0876 253.094 64.0876C253.239 64.0876 253.384 64.0876 253.457 64.0876ZM252.66 64.0876C252.515 64.0876 252.442 64.0876 252.297 64.0876C252.442 64.0876 252.587 64.0876 252.66 64.0876ZM252.297 64.0876C252.152 64.0876 252.007 64.0876 251.935 64.0876C251.79 64.0876 251.645 64.0876 251.5 64.0876H252.297Z" fill="#91BE54"/>
<path fill-rule="evenodd" clip-rule="evenodd" d="M251.5 27.4453C246.717 27.4453 242.441 29.4161 239.252 32.5547C236.135 35.6934 234.178 40.073 234.178 44.8905H235.773C235.773 40.5109 237.512 36.5693 240.339 33.7226C243.165 30.8759 247.079 29.1241 251.428 29.1241C255.776 29.1241 259.69 30.8759 262.516 33.7226C265.415 36.4963 267.155 40.438 267.155 44.8175C267.155 47.5912 266.43 50.219 265.198 52.4817C265.705 52.6277 266.213 52.8467 266.72 52.9927C268.024 50.5839 268.749 47.7372 268.749 44.8175C268.749 40 266.792 35.6934 263.676 32.4817C260.632 29.3431 256.283 27.4453 251.5 27.4453ZM253.239 60.6569C253.094 60.6569 252.95 60.6569 252.805 60.6569C253.022 60.6569 253.094 60.6569 253.239 60.6569ZM252.805 60.6569C252.66 60.6569 252.515 60.6569 252.37 60.6569C252.587 60.6569 252.66 60.6569 252.805 60.6569ZM252.37 60.6569C252.225 60.6569 252.08 60.6569 252.007 60.6569C252.08 60.6569 252.225 60.6569 252.37 60.6569ZM251.935 60.6569C251.79 60.6569 251.645 60.6569 251.5 60.6569C251.645 60.5839 251.79 60.6569 251.935 60.6569Z" fill="#91BE54"/>
<path fill-rule="evenodd" clip-rule="evenodd" d="M251.5 30.8759C247.659 30.8759 244.18 32.4088 241.716 34.9635C239.179 37.5183 237.657 40.9489 237.657 44.8175H239.252C239.252 41.3869 240.629 38.3212 242.875 36.0584C245.122 33.7956 248.166 32.4088 251.572 32.4088C254.979 32.4088 258.023 33.7956 260.27 36.0584C262.516 38.3212 263.893 41.3869 263.893 44.8175C263.893 47.2993 263.169 49.635 261.936 51.5328C262.444 51.6788 263.024 51.8248 263.531 51.9708C264.763 49.854 265.488 47.4453 265.488 44.8175C265.488 40.9489 263.966 37.4453 261.429 34.9635C258.82 32.4088 255.341 30.8759 251.5 30.8759ZM257.081 57.5912H257.008H257.081ZM253.892 57.2993C253.747 57.2993 253.602 57.2993 253.457 57.2993C253.602 57.2263 253.747 57.2263 253.892 57.2993ZM253.384 57.2263C253.239 57.2263 253.094 57.2263 252.949 57.2263C253.167 57.2263 253.312 57.2263 253.384 57.2263ZM252.949 57.2263C252.805 57.2263 252.66 57.2263 252.515 57.2263C252.66 57.2263 252.805 57.2263 252.949 57.2263ZM252.515 57.2263C252.37 57.2263 252.225 57.2263 252.007 57.2263H252.515ZM251.935 57.2263C251.79 57.2263 251.645 57.2263 251.5 57.2263C251.645 57.2263 251.79 57.2263 251.935 57.2263Z" fill="#91BE54"/>
<path fill-rule="evenodd" clip-rule="evenodd" d="M251.5 34.3066C248.601 34.3066 245.992 35.4745 244.107 37.3723C242.223 39.2701 241.064 41.8978 241.064 44.8175H242.658C242.658 42.3358 243.673 40.146 245.267 38.4672C246.862 36.8613 249.108 35.8394 251.572 35.8394C254.037 35.8394 256.211 36.8613 257.878 38.4672C259.472 40.073 260.487 42.3358 260.487 44.8175C260.487 47.1533 259.617 49.1971 258.168 50.8029C258.748 50.8759 259.4 51.0219 259.98 51.0949C261.284 49.3431 262.081 47.1533 262.081 44.8175C262.081 41.8978 260.922 39.2701 259.037 37.3723C257.008 35.4745 254.399 34.3066 251.5 34.3066ZM253.022 53.7956C252.877 53.7956 252.732 53.7956 252.587 53.7956C252.732 53.7956 252.877 53.7956 253.022 53.7956ZM252.515 53.7956C252.152 53.7956 251.79 53.7956 251.5 53.7956C251.862 53.7956 252.225 53.7956 252.515 53.7956Z" fill="#91BE54"/>
<path fill-rule="evenodd" clip-rule="evenodd" d="M251.5 37.7372C249.543 37.7372 247.804 38.5401 246.499 39.854C245.195 41.1679 244.397 42.9197 244.397 44.8905H245.992C245.992 43.3576 246.572 41.9708 247.586 41.0219C248.601 40 249.978 39.416 251.427 39.416C252.949 39.416 254.326 40 255.269 41.0219C256.283 42.0438 256.863 43.4306 256.863 44.8905C256.863 46.4233 256.283 47.8102 255.269 48.7591C254.254 49.781 252.877 50.3649 251.427 50.3649C252.877 50.3649 254.254 50.4379 255.631 50.5839C255.921 50.3649 256.138 50.146 256.428 49.927C257.733 48.6131 258.53 46.8613 258.53 44.8905C258.53 42.9197 257.733 41.1679 256.428 39.854C255.196 38.5401 253.457 37.7372 251.5 37.7372Z" fill="#91BE54"/>
<path fill-rule="evenodd" clip-rule="evenodd" d="M251.5 140C239.179 140 228.09 134.964 220.046 126.861C212.001 118.759 207 107.518 207 95.1825H208.594C208.594 107.153 213.378 117.956 221.133 125.766C228.888 133.577 239.614 138.394 251.5 138.394C263.386 138.394 274.112 133.577 281.867 125.766C289.622 117.956 294.406 107.153 294.406 95.1825C294.406 83.2117 289.622 72.4088 281.867 64.5985C274.112 56.7883 263.386 51.9708 251.5 51.9708H227.221V50.365H251.5C263.821 50.365 274.91 55.4015 282.954 63.5036C290.999 71.6058 296 82.8467 296 95.1825C296 107.591 290.999 118.759 282.954 126.861C274.91 134.964 263.821 140 251.5 140ZM227.221 53.7956V55.4015H251.5C262.444 55.4015 272.3 59.854 279.403 67.0803C286.578 74.3066 290.999 84.2336 290.999 95.1825C290.999 106.204 286.578 116.131 279.403 123.285C272.228 130.511 262.371 134.963 251.5 134.963C240.556 134.963 230.7 130.511 223.597 123.285C216.422 116.058 212.001 106.131 212.001 95.1825H210.406C210.406 106.642 214.972 116.934 222.437 124.453C229.902 131.971 240.121 136.569 251.5 136.569C262.879 136.569 273.098 131.971 280.563 124.453C288.028 116.934 292.594 106.642 292.594 95.1825C292.594 83.7226 288.028 73.4307 280.563 65.9124C273.17 58.3942 262.879 53.7956 251.5 53.7956H227.221ZM227.221 57.2263V58.8321H251.5C261.502 58.8321 270.489 62.9197 277.011 69.489C283.534 76.0584 287.593 85.1825 287.593 95.1825C287.593 105.255 283.534 114.307 277.011 120.876C270.489 127.445 261.429 131.533 251.5 131.533C241.498 131.533 232.511 127.445 225.989 120.876C219.466 114.307 215.407 105.182 215.407 95.1825H213.813C213.813 105.693 218.016 115.182 224.829 122.044C231.642 128.905 241.064 133.139 251.5 133.139C261.936 133.139 271.358 128.905 278.171 122.044C284.984 115.182 289.187 105.693 289.187 95.1825C289.187 84.6715 284.984 75.1825 278.171 68.3212C271.358 61.4598 261.936 57.2263 251.5 57.2263H227.221ZM227.221 60.5839V62.1898H251.5C260.559 62.1898 268.677 65.9124 274.62 71.8248C280.563 77.8102 284.186 85.9854 284.186 95.1095C284.186 104.234 280.49 112.409 274.62 118.394C268.677 124.38 260.559 128.029 251.5 128.029C242.441 128.029 234.323 124.307 228.38 118.394C222.437 112.409 218.814 104.234 218.814 95.1095H217.219C217.219 104.672 221.06 113.285 227.293 119.562C233.526 125.839 242.078 129.708 251.572 129.708C261.067 129.708 269.619 125.839 275.852 119.562C282.085 113.285 285.926 104.672 285.926 95.1095C285.926 85.5474 282.085 76.9343 275.852 70.6569C269.546 64.4526 260.994 60.5839 251.5 60.5839H227.221ZM227.221 64.0146V65.6204H251.5C259.617 65.6204 266.937 68.9051 272.228 74.2336C277.519 79.562 280.78 86.9343 280.78 95.1095C280.78 103.285 277.519 110.657 272.228 115.985C266.937 121.314 259.617 124.599 251.5 124.599C243.383 124.599 236.063 121.314 230.772 115.985C225.481 110.657 222.22 103.285 222.22 95.1095H220.625C220.625 103.723 224.104 111.46 229.685 117.08C235.265 122.774 242.948 126.277 251.5 126.277C260.052 126.277 267.735 122.774 273.315 117.153C278.896 111.533 282.375 103.723 282.375 95.1825C282.375 86.5693 278.896 78.8321 273.315 73.2117C267.735 67.5912 259.98 64.0876 251.5 64.0876H227.221V64.0146ZM227.221 67.4453V69.0511H251.5C258.675 69.0511 265.125 71.9708 269.836 76.7153C274.547 81.4598 277.446 87.9562 277.446 95.1825C277.446 102.409 274.547 108.905 269.836 113.65C265.125 118.394 258.675 121.314 251.5 121.314C244.325 121.314 237.875 118.394 233.164 113.65C228.453 108.905 225.554 102.409 225.554 95.1825H223.959C223.959 102.847 227.003 109.781 232.004 114.745C237.005 119.781 243.818 122.847 251.428 122.847C259.037 122.847 265.923 119.781 270.851 114.745C275.852 109.708 278.896 102.847 278.896 95.1825C278.896 87.5182 275.852 80.5839 270.851 75.6204C265.85 70.5839 259.037 67.5182 251.428 67.5182H227.221V67.4453ZM227.221 70.8759V72.4818H251.5C257.733 72.4818 263.314 75.0365 267.372 79.1241C271.431 83.2117 273.967 88.9051 273.967 95.1095C273.967 101.387 271.431 107.007 267.372 111.095C263.314 115.182 257.66 117.737 251.5 117.737C245.267 117.737 239.686 115.182 235.628 111.095C231.569 107.007 229.033 101.314 229.033 95.1095H227.438C227.438 101.825 230.12 107.883 234.468 112.263C238.817 116.642 244.832 119.343 251.5 119.343C258.168 119.343 264.183 116.642 268.532 112.263C272.88 107.883 275.562 101.825 275.562 95.1095C275.562 88.3942 272.88 82.3358 268.532 77.9562C264.183 73.5766 258.168 70.8759 251.5 70.8759H227.221ZM227.221 74.3066V75.9124H251.5C256.791 75.9124 261.574 78.0292 264.98 81.5328C268.459 85.0365 270.561 89.781 270.561 95.1095C270.561 100.438 268.459 105.255 264.98 108.686C261.502 112.19 256.791 114.307 251.5 114.307C246.209 114.307 241.426 112.19 238.02 108.686C234.541 105.182 232.439 100.365 232.439 95.1095H230.844C230.844 100.876 233.164 106.058 236.932 109.854C240.701 113.65 245.847 115.985 251.572 115.985C257.298 115.985 262.444 113.65 266.213 109.854C269.981 106.058 272.3 100.876 272.3 95.1095C272.3 89.3431 269.981 84.1606 266.213 80.365C262.444 76.5693 257.298 74.2336 251.572 74.2336H227.221V74.3066ZM227.221 77.7372V79.3431H251.5C255.849 79.3431 259.762 81.0949 262.589 83.9416C265.415 86.7883 267.155 90.7299 267.155 95.1095C267.155 99.489 265.415 103.431 262.589 106.277C259.762 109.124 255.849 110.876 251.5 110.876C247.151 110.876 243.238 109.124 240.411 106.277C237.585 103.431 235.845 99.489 235.845 95.1095H234.251C234.251 99.927 236.208 104.234 239.324 107.445C242.441 110.584 246.789 112.555 251.572 112.555C256.356 112.555 260.632 110.584 263.821 107.445C266.937 104.307 268.894 99.927 268.894 95.1095C268.894 90.292 266.937 85.9854 263.821 82.7737C260.704 79.635 256.356 77.6642 251.572 77.6642H227.221V77.7372ZM227.221 81.1679V82.7737H251.5C254.906 82.7737 257.95 84.1606 260.197 86.4234C262.444 88.6861 263.821 91.7518 263.821 95.1825C263.821 98.6131 262.444 101.679 260.197 103.942C257.95 106.204 254.906 107.591 251.5 107.591C248.094 107.591 245.05 106.204 242.803 103.942C240.556 101.679 239.179 98.6131 239.179 95.1825H237.585C237.585 99.0511 239.107 102.555 241.643 105.036C244.18 107.591 247.586 109.124 251.428 109.124C255.269 109.124 258.748 107.591 261.212 105.036C263.748 102.482 265.27 99.0511 265.27 95.1825C265.27 91.3139 263.748 87.8102 261.212 85.3285C258.675 82.7737 255.269 81.2409 251.428 81.2409H227.221V81.1679ZM227.221 84.5985V86.2044H251.5C253.964 86.2044 256.138 87.2263 257.805 88.8321C259.4 90.438 260.414 92.7007 260.414 95.1825C260.414 97.6642 259.4 99.854 257.805 101.533C256.211 103.139 253.964 104.161 251.5 104.161C249.036 104.161 246.862 103.139 245.195 101.533C243.6 99.927 242.586 97.6642 242.586 95.1825H241.064C241.064 98.1022 242.223 100.73 244.107 102.628C245.992 104.526 248.601 105.693 251.5 105.693C254.399 105.693 257.008 104.526 258.893 102.628C260.777 100.73 261.936 98.1022 261.936 95.1825C261.936 92.2628 260.777 89.635 258.893 87.7372C257.008 85.8394 254.399 84.6715 251.5 84.6715H227.221V84.5985ZM251.5 102.263C253.457 102.263 255.196 101.46 256.501 100.146C257.805 98.8321 258.603 97.0803 258.603 95.1095C258.603 93.1387 257.805 91.3869 256.501 90.073C255.196 88.7591 253.457 87.9562 251.5 87.9562H227.221V89.562H251.5C253.022 89.562 254.399 90.146 255.341 91.1679C256.356 92.1898 256.936 93.5766 256.936 95.0365C256.936 96.5693 256.356 97.9562 255.341 98.9051C254.327 99.927 252.95 100.511 251.5 100.511C249.978 100.511 248.601 99.927 247.659 98.9051C246.644 97.8832 246.064 96.4963 246.064 95.0365H244.47C244.47 97.0073 245.267 98.7591 246.572 100.073C247.804 101.46 249.543 102.263 251.5 102.263Z" fill="#91BE54"/>
<path opacity="0.49" fill-rule="evenodd" clip-rule="evenodd" d="M291.144 65.1825C283.607 54.0146 271.141 46.6423 256.863 45.7664C256.356 47.9562 254.979 50 251.79 50.365C267.227 50.292 280.49 58.6131 288.318 70C289.477 68.5401 290.347 66.8613 291.144 65.1825Z" fill="#082E41"/>
</g>
<path fill-rule="evenodd" clip-rule="evenodd" d="M399 44.8643C399 32.4426 393.887 21.263 385.661 13.1524C377.436 5.04175 366.098 0 353.5 0C340.976 0 329.564 5.04175 321.339 13.1524C313.113 21.263 308 32.5157 308 44.8643V95.1357C308 107.557 313.113 118.737 321.339 126.848C329.564 134.958 340.976 140 353.5 140C366.098 140 377.436 134.958 385.661 126.848C393.887 118.737 399 107.484 399 95.1357V44.8643H397.37V95.1357C397.37 107.119 392.479 117.933 384.55 125.752C376.621 133.57 365.653 138.392 353.5 138.392C341.347 138.392 330.379 133.57 322.45 125.752C314.521 117.86 309.63 107.046 309.63 95.1357V44.8643C309.63 32.9541 314.521 22.0668 322.45 14.2484C330.454 6.43006 341.421 1.60752 353.5 1.60752C365.579 1.60752 376.621 6.43006 384.55 14.2484C392.479 22.0668 397.37 32.881 397.37 44.8643H399ZM359.132 95.1357V44.8643H360.762V95.1357C360.762 97.1086 359.947 98.8622 358.613 100.177C357.279 101.493 355.501 102.296 353.5 102.296C351.499 102.296 349.721 101.493 348.387 100.177C347.053 98.8622 346.238 97.1086 346.238 95.1357V44.8643C346.238 42.8914 347.053 41.1378 348.387 39.8225C349.721 38.5073 351.499 37.7035 353.5 37.7035C355.501 37.7035 357.279 38.5073 358.613 39.8225C359.947 41.1378 360.762 42.8914 360.762 44.8643H359.132C359.132 43.3299 358.539 41.9415 357.502 40.9916C356.464 39.9687 355.056 39.3841 353.574 39.3841C352.018 39.3841 350.61 39.9687 349.647 40.9916C348.609 42.0146 348.016 43.4029 348.016 44.8643V95.1357C348.016 96.6701 348.609 98.0585 349.647 99.0083C350.684 100.031 352.092 100.616 353.574 100.616C355.13 100.616 356.538 100.031 357.502 99.0083C358.465 98.0585 359.132 96.6701 359.132 95.1357ZM362.615 95.1357V44.8643H364.245V95.1357C364.245 98.0584 363.059 100.689 361.133 102.589C359.206 104.489 356.538 105.658 353.574 105.658C350.61 105.658 347.942 104.489 346.015 102.589C344.089 100.689 342.903 98.0584 342.903 95.1357V44.8643C342.903 41.9415 344.089 39.3111 346.015 37.4113C347.942 35.5115 350.61 34.3424 353.574 34.3424C356.538 34.3424 359.206 35.5115 361.133 37.4113C363.059 39.3111 364.245 41.9415 364.245 44.8643H362.615C362.615 42.38 361.577 40.1879 359.947 38.5073C358.317 36.8998 356.02 35.8768 353.5 35.8768C350.98 35.8768 348.757 36.8998 347.053 38.5073C345.423 40.1148 344.385 42.38 344.385 44.8643V95.1357C344.385 97.62 345.423 99.8121 347.053 101.493C348.683 103.1 350.98 104.123 353.5 104.123C356.02 104.123 358.243 103.1 359.947 101.493C361.577 99.8121 362.615 97.62 362.615 95.1357ZM366.098 95.1357V44.8643H367.728V95.1357C367.728 99.0083 366.172 102.516 363.578 105C360.985 107.557 357.428 109.092 353.574 109.092C349.647 109.092 346.09 107.557 343.57 105C340.976 102.443 339.42 99.0083 339.42 95.1357V44.8643C339.42 40.9916 340.976 37.4843 343.57 35C346.164 32.4426 349.647 30.9081 353.574 30.9081C357.502 30.9081 361.059 32.4426 363.578 35C366.172 37.5574 367.728 41.0647 367.728 44.8643H366.098C366.098 41.4301 364.69 38.3612 362.393 36.096C360.095 33.8309 356.983 32.4426 353.5 32.4426C350.017 32.4426 346.905 33.8309 344.607 36.096C342.31 38.3612 340.902 41.4301 340.902 44.8643V95.1357C340.902 98.5699 342.31 101.639 344.607 103.904C346.905 106.169 350.017 107.557 353.5 107.557C356.983 107.557 360.095 106.169 362.393 103.904C364.69 101.639 366.098 98.5699 366.098 95.1357ZM369.507 95.1357V44.8643H371.137V95.1357C371.137 99.9582 369.136 104.269 365.95 107.484C362.763 110.626 358.317 112.599 353.426 112.599C348.535 112.599 344.163 110.626 340.902 107.484C337.716 104.342 335.715 99.9582 335.715 95.1357V44.8643C335.715 40.0418 337.716 35.7307 340.902 32.5157C344.089 29.3737 348.535 27.4008 353.426 27.4008C358.317 27.4008 362.689 29.3737 365.95 32.5157C369.136 35.6576 371.137 40.0418 371.137 44.8643H369.507C369.507 40.4802 367.728 36.5344 364.838 33.6848C361.948 30.8351 357.946 29.0814 353.5 29.0814C349.054 29.0814 345.052 30.8351 342.162 33.6848C339.272 36.5344 337.493 40.4802 337.493 44.8643V95.1357C337.493 99.5198 339.272 103.466 342.162 106.315C345.052 109.165 349.054 110.919 353.5 110.919C357.946 110.919 361.948 109.165 364.838 106.315C367.728 103.466 369.507 99.5198 369.507 95.1357ZM372.989 95.1357V44.8643H374.62V95.1357C374.62 100.908 372.248 106.096 368.395 109.896C364.542 113.695 359.28 116.033 353.426 116.033C347.572 116.033 342.31 113.695 338.457 109.896C334.603 106.096 332.232 100.908 332.232 95.1357V44.8643C332.232 39.0919 334.603 33.904 338.457 30.1044C342.31 26.3048 347.572 23.9666 353.426 23.9666C359.28 23.9666 364.542 26.3048 368.395 30.1044C372.248 33.904 374.62 39.0919 374.62 44.8643H372.989C372.989 39.5303 370.84 34.7077 367.283 31.2735C363.726 27.7662 358.836 25.6472 353.5 25.6472C348.09 25.6472 343.2 27.7662 339.717 31.2735C336.16 34.7808 334.011 39.5303 334.011 44.8643V95.1357C334.011 100.47 336.16 105.292 339.717 108.727C343.274 112.234 348.164 114.353 353.5 114.353C358.91 114.353 363.8 112.234 367.283 108.727C370.84 105.219 372.989 100.47 372.989 95.1357ZM376.472 95.1357V44.8643H378.103V95.1357C378.103 101.858 375.361 107.923 370.914 112.307C366.468 116.691 360.318 119.395 353.5 119.395C346.682 119.395 340.532 116.691 336.086 112.307C331.639 107.923 328.897 101.858 328.897 95.1357V44.8643C328.897 38.142 331.639 32.0772 336.086 27.6931C340.532 23.309 346.682 20.6054 353.5 20.6054C360.318 20.6054 366.468 23.309 370.914 27.6931C375.361 32.0772 378.103 38.142 378.103 44.8643H376.472C376.472 38.5804 373.879 32.9541 369.729 28.8622C365.579 24.7704 359.799 22.2129 353.5 22.2129C347.127 22.2129 341.421 24.7704 337.271 28.8622C333.121 32.9541 330.528 38.6534 330.528 44.8643V95.1357C330.528 101.42 333.121 107.046 337.271 111.138C341.421 115.23 347.201 117.787 353.5 117.787C359.873 117.787 365.579 115.23 369.729 111.138C373.953 107.046 376.472 101.42 376.472 95.1357ZM379.955 95.1357V44.8643H381.586V95.1357C381.586 102.808 378.473 109.749 373.36 114.718C368.247 119.76 361.281 122.829 353.5 122.829C345.719 122.829 338.679 119.76 333.64 114.718C328.527 109.676 325.414 102.808 325.414 95.1357V44.8643C325.414 37.1921 328.527 30.2505 333.64 25.2818C338.753 20.2401 345.719 17.1712 353.5 17.1712C361.281 17.1712 368.321 20.2401 373.36 25.2818C378.473 30.3236 381.586 37.1921 381.586 44.8643H379.955C379.955 37.6305 376.991 31.1273 372.174 26.3779C367.357 21.6284 360.762 18.7056 353.426 18.7056C346.09 18.7056 339.494 21.6284 334.678 26.3779C329.861 31.1273 326.897 37.6305 326.897 44.8643V95.1357C326.897 102.37 329.861 108.873 334.678 113.622C339.494 118.372 346.09 121.294 353.426 121.294C360.762 121.294 367.357 118.372 372.174 113.622C376.991 108.873 379.955 102.37 379.955 95.1357ZM383.438 95.1357V44.8643H385.068V95.1357C385.068 103.758 381.511 111.503 375.805 117.129C370.099 122.756 362.17 126.263 353.5 126.263C344.756 126.263 336.901 122.756 331.195 117.129C325.489 111.503 321.932 103.685 321.932 95.1357V44.8643C321.932 36.2422 325.489 28.4969 331.195 22.8706C336.901 17.2443 344.83 13.737 353.5 13.737C362.244 13.737 370.099 17.2443 375.805 22.8706C381.586 28.4969 385.068 36.2422 385.068 44.8643H383.438C383.438 36.6806 380.103 29.3006 374.694 23.9666C369.284 18.6326 361.8 15.3445 353.5 15.3445C345.2 15.3445 337.716 18.6326 332.306 23.9666C326.897 29.3006 323.562 36.6806 323.562 44.8643V95.1357C323.562 103.319 326.897 110.699 332.306 116.033C337.716 121.367 345.2 124.656 353.5 124.656C361.8 124.656 369.284 121.367 374.694 116.033C380.103 110.699 383.438 103.246 383.438 95.1357ZM386.921 95.1357V44.8643H388.551V95.1357C388.551 104.708 384.624 113.33 378.251 119.614C371.878 125.898 363.134 129.77 353.426 129.77C343.718 129.77 334.974 125.898 328.601 119.614C322.228 113.33 318.3 104.708 318.3 95.1357V44.8643C318.3 35.2923 322.228 26.6701 328.601 20.3862C334.974 14.1023 343.718 10.2296 353.426 10.2296C363.134 10.2296 371.878 14.1023 378.251 20.3862C384.624 26.6701 388.551 35.2923 388.551 44.8643H386.921C386.921 35.7307 383.216 27.547 377.139 21.5553C371.063 15.5637 362.763 11.9102 353.5 11.9102C344.237 11.9102 335.937 15.6367 329.861 21.5553C323.784 27.547 320.079 35.8038 320.079 44.8643V95.1357C320.079 104.269 323.784 112.453 329.861 118.445C335.937 124.436 344.237 128.09 353.5 128.09C362.763 128.09 371.063 124.363 377.139 118.445C383.216 112.453 386.921 104.196 386.921 95.1357ZM390.404 95.1357V44.8643H392.034V95.1357C392.034 105.658 387.736 115.157 380.77 122.025C373.805 128.894 364.171 133.132 353.5 133.132C342.829 133.132 333.195 128.894 326.23 122.025C319.264 115.157 314.966 105.585 314.966 95.1357V44.8643C314.966 34.3424 319.264 24.8434 326.23 17.9749C333.195 11.1065 342.829 6.86848 353.5 6.86848C364.171 6.86848 373.805 11.1065 380.77 17.9749C387.736 24.8434 392.034 34.3424 392.034 44.8643H390.404C390.404 34.7808 386.254 25.7203 379.585 19.1441C372.915 12.5679 363.652 8.47599 353.5 8.47599C343.274 8.47599 334.085 12.5679 327.415 19.1441C320.746 25.7203 316.596 34.8539 316.596 44.8643V95.1357C316.596 105.219 320.746 114.28 327.415 120.856C334.085 127.432 343.348 131.524 353.5 131.524C363.726 131.524 372.915 127.432 379.585 120.856C386.328 114.28 390.404 105.146 390.404 95.1357ZM393.887 95.1357V44.8643H395.517V95.1357C395.517 106.608 390.849 116.91 383.216 124.436C375.583 131.962 365.134 136.566 353.5 136.566C341.866 136.566 331.417 131.962 323.784 124.436C316.151 116.91 311.483 106.534 311.483 95.1357V44.8643C311.483 33.3925 316.151 23.0898 323.784 15.5637C331.417 8.03758 341.94 3.43424 353.5 3.43424C365.134 3.43424 375.583 8.03758 383.216 15.5637C390.849 23.0898 395.517 33.3925 395.517 44.8643H393.887C393.887 33.8309 389.366 23.8935 382.03 16.7328C374.694 9.49896 364.616 5.04175 353.5 5.04175C342.31 5.04175 332.232 9.49896 324.97 16.7328C317.634 23.9666 313.113 33.904 313.113 44.8643V95.1357C313.113 106.169 317.634 116.106 324.97 123.267C332.306 130.501 342.384 134.958 353.5 134.958C364.69 134.958 374.768 130.501 382.03 123.267C389.366 116.106 393.887 106.096 393.887 95.1357Z" fill="#91BE54"/>
<defs>
<clipPath id="clip0">
<rect width="92" height="140" fill="white"/>
</clipPath>
<clipPath id="clip1">
<rect width="89" height="140" fill="white" transform="translate(207)"/>
</clipPath>
</defs>
</svg>
