<svg width="1330" height="12" viewBox="0 0 1330 12" fill="none" xmlns="http://www.w3.org/2000/svg">
<rect x="6" y="3" width="2" height="6" fill="#D6D8E5"/>
<rect x="14" y="3" width="2" height="6" fill="#D6D8E5"/>
<rect x="22" y="3" width="2" height="6" fill="#D6D8E5"/>
<rect x="30" y="3" width="2" height="6" fill="#D6D8E5"/>
<rect x="38" y="3" width="2" height="6" fill="#D6D8E5"/>
<rect x="46" y="3" width="2" height="6" fill="#D6D8E5"/>
<rect x="54" y="3" width="2" height="6" fill="#D6D8E5"/>
<rect x="62" y="3" width="2" height="6" fill="#D6D8E5"/>
<rect x="70" y="3" width="2" height="6" fill="#D6D8E5"/>
<rect x="78" y="3" width="2" height="6" fill="#D6D8E5"/>
<rect x="86" y="3" width="2" height="6" fill="#D6D8E5"/>
<rect x="94" y="3" width="2" height="6" fill="#D6D8E5"/>
<rect x="102" y="3" width="2" height="6" fill="#D6D8E5"/>
<rect x="110" y="3" width="2" height="6" fill="#D6D8E5"/>
<rect x="118" y="3" width="2" height="6" fill="#D6D8E5"/>
<rect x="126" y="3" width="2" height="6" fill="#D6D8E5"/>
<rect x="134" y="3" width="2" height="6" fill="#D6D8E5"/>
<rect x="142" y="3" width="2" height="6" fill="#D6D8E5"/>
<rect x="150" y="3" width="2" height="6" fill="#D6D8E5"/>
<rect x="158" y="3" width="2" height="6" fill="#D6D8E5"/>
<rect x="166" y="3" width="2" height="6" fill="#D6D8E5"/>
<rect x="174" y="3" width="2" height="6" fill="#D6D8E5"/>
<rect x="182" y="3" width="2" height="6" fill="#D6D8E5"/>
<rect x="190" y="3" width="2" height="6" fill="#D6D8E5"/>
<rect x="198" y="3" width="2" height="6" fill="#D6D8E5"/>
<rect x="206" y="3" width="2" height="6" fill="#D6D8E5"/>
<rect x="214" y="3" width="2" height="6" fill="#D6D8E5"/>
<rect x="222" y="3" width="2" height="6" fill="#D6D8E5"/>
<rect x="230" y="3" width="2" height="6" fill="#D6D8E5"/>
<rect x="238" y="3" width="2" height="6" fill="#D6D8E5"/>
<rect x="246" y="3" width="2" height="6" fill="#D6D8E5"/>
<rect x="254" y="3" width="2" height="6" fill="#D6D8E5"/>
<rect x="262" y="3" width="2" height="6" fill="#D6D8E5"/>
<rect x="270" y="3" width="2" height="6" fill="#D6D8E5"/>
<rect x="278" y="3" width="2" height="6" fill="#D6D8E5"/>
<rect x="286" y="3" width="2" height="6" fill="#D6D8E5"/>
<rect x="294" y="3" width="2" height="6" fill="#D6D8E5"/>
<rect x="302" y="3" width="2" height="6" fill="#D6D8E5"/>
<rect x="310" y="3" width="2" height="6" fill="#D6D8E5"/>
<rect x="318" y="3" width="2" height="6" fill="#D6D8E5"/>
<rect x="326" y="3" width="2" height="6" fill="#D6D8E5"/>
<rect x="334" y="3" width="2" height="6" fill="#D6D8E5"/>
<rect x="342" y="3" width="2" height="6" fill="#D6D8E5"/>
<rect x="350" y="3" width="2" height="6" fill="#D6D8E5"/>
<rect x="358" y="3" width="2" height="6" fill="#D6D8E5"/>
<rect x="366" y="3" width="2" height="6" fill="#D6D8E5"/>
<rect x="374" y="3" width="2" height="6" fill="#D6D8E5"/>
<rect x="382" y="3" width="2" height="6" fill="#D6D8E5"/>
<rect x="390" y="3" width="2" height="6" fill="#D6D8E5"/>
<rect x="398" y="3" width="2" height="6" fill="#D6D8E5"/>
<rect x="406" y="3" width="2" height="6" fill="#D6D8E5"/>
<rect x="414" y="3" width="2" height="6" fill="#D6D8E5"/>
<rect x="422" y="3" width="2" height="6" fill="#D6D8E5"/>
<rect x="430" y="3" width="2" height="6" fill="#D6D8E5"/>
<rect x="438" y="3" width="2" height="6" fill="#D6D8E5"/>
<rect x="446" y="3" width="2" height="6" fill="#D6D8E5"/>
<rect x="454" y="3" width="2" height="6" fill="#D6D8E5"/>
<rect x="462" y="3" width="2" height="6" fill="#D6D8E5"/>
<rect x="470" y="3" width="2" height="6" fill="#D6D8E5"/>
<rect x="478" y="3" width="2" height="6" fill="#D6D8E5"/>
<rect x="486" y="3" width="2" height="6" fill="#D6D8E5"/>
<rect x="494" y="3" width="2" height="6" fill="#D6D8E5"/>
<rect x="502" y="3" width="2" height="6" fill="#D6D8E5"/>
<rect x="510" y="3" width="2" height="6" fill="#D6D8E5"/>
<rect x="518" y="3" width="2" height="6" fill="#D6D8E5"/>
<rect x="526" y="3" width="2" height="6" fill="#D6D8E5"/>
<rect x="534" y="3" width="2" height="6" fill="#D6D8E5"/>
<rect x="542" y="3" width="2" height="6" fill="#D6D8E5"/>
<rect x="550" y="3" width="2" height="6" fill="#D6D8E5"/>
<rect x="558" y="3" width="2" height="6" fill="#D6D8E5"/>
<rect x="566" y="3" width="2" height="6" fill="#D6D8E5"/>
<rect x="574" y="3" width="2" height="6" fill="#D6D8E5"/>
<rect x="582" y="3" width="2" height="6" fill="#D6D8E5"/>
<rect x="590" y="3" width="2" height="6" fill="#D6D8E5"/>
<rect x="598" y="3" width="2" height="6" fill="#D6D8E5"/>
<rect x="606" y="3" width="2" height="6" fill="#D6D8E5"/>
<rect x="614" y="3" width="2" height="6" fill="#D6D8E5"/>
<rect x="622" y="3" width="2" height="6" fill="#D6D8E5"/>
<rect x="630" y="3" width="2" height="6" fill="#D6D8E5"/>
<rect x="638" y="3" width="2" height="6" fill="#D6D8E5"/>
<rect x="646" y="3" width="2" height="6" fill="#D6D8E5"/>
<rect x="654" y="3" width="2" height="6" fill="#D6D8E5"/>
<rect x="662" y="3" width="2" height="6" fill="#D6D8E5"/>
<rect x="670" y="3" width="2" height="6" fill="#D6D8E5"/>
<rect x="678" y="3" width="2" height="6" fill="#D6D8E5"/>
<rect x="686" y="3" width="2" height="6" fill="#D6D8E5"/>
<rect x="694" y="3" width="2" height="6" fill="#D6D8E5"/>
<rect x="702" y="3" width="2" height="6" fill="#D6D8E5"/>
<rect x="710" y="3" width="2" height="6" fill="#D6D8E5"/>
<rect x="718" y="3" width="2" height="6" fill="#D6D8E5"/>
<rect x="726" y="3" width="2" height="6" fill="#D6D8E5"/>
<rect x="734" y="3" width="2" height="6" fill="#D6D8E5"/>
<rect x="742" y="3" width="2" height="6" fill="#D6D8E5"/>
<rect x="750" y="3" width="2" height="6" fill="#D6D8E5"/>
<rect x="758" y="3" width="2" height="6" fill="#D6D8E5"/>
<rect x="766" y="3" width="2" height="6" fill="#D6D8E5"/>
<rect x="774" y="3" width="2" height="6" fill="#D6D8E5"/>
<rect x="782" y="3" width="2" height="6" fill="#D6D8E5"/>
<rect x="790" y="3" width="2" height="6" fill="#D6D8E5"/>
<rect x="798" y="3" width="2" height="6" fill="#D6D8E5"/>
<rect x="806" y="3" width="2" height="6" fill="#D6D8E5"/>
<rect x="814" y="3" width="2" height="6" fill="#D6D8E5"/>
<rect x="822" y="3" width="2" height="6" fill="#D6D8E5"/>
<rect x="830" y="3" width="2" height="6" fill="#D6D8E5"/>
<rect x="838" y="3" width="2" height="6" fill="#D6D8E5"/>
<rect x="846" y="3" width="2" height="6" fill="#D6D8E5"/>
<rect x="854" y="3" width="2" height="6" fill="#D6D8E5"/>
<rect x="862" y="3" width="2" height="6" fill="#D6D8E5"/>
<rect x="870" y="3" width="2" height="6" fill="#D6D8E5"/>
<rect x="878" y="3" width="2" height="6" fill="#D6D8E5"/>
<rect x="886" y="3" width="2" height="6" fill="#D6D8E5"/>
<rect x="894" y="3" width="2" height="6" fill="#D6D8E5"/>
<rect x="902" y="3" width="2" height="6" fill="#D6D8E5"/>
<rect x="910" y="3" width="2" height="6" fill="#D6D8E5"/>
<rect x="918" y="3" width="2" height="6" fill="#D6D8E5"/>
<rect x="926" y="3" width="2" height="6" fill="#D6D8E5"/>
<rect x="934" y="3" width="2" height="6" fill="#D6D8E5"/>
<rect x="942" y="3" width="2" height="6" fill="#D6D8E5"/>
<rect x="950" y="3" width="2" height="6" fill="#D6D8E5"/>
<rect x="958" y="3" width="2" height="6" fill="#D6D8E5"/>
<rect x="966" y="3" width="2" height="6" fill="#D6D8E5"/>
<rect x="974" y="3" width="2" height="6" fill="#D6D8E5"/>
<rect x="982" y="3" width="2" height="6" fill="#D6D8E5"/>
<rect x="990" y="3" width="2" height="6" fill="#D6D8E5"/>
<rect x="998" y="3" width="2" height="6" fill="#D6D8E5"/>
<rect x="1006" y="3" width="2" height="6" fill="#D6D8E5"/>
<rect x="1014" y="3" width="2" height="6" fill="#D6D8E5"/>
<rect x="1022" y="3" width="2" height="6" fill="#D6D8E5"/>
<rect x="1030" y="3" width="2" height="6" fill="#D6D8E5"/>
<rect x="1038" y="3" width="2" height="6" fill="#D6D8E5"/>
<rect x="1046" y="3" width="2" height="6" fill="#D6D8E5"/>
<rect x="1054" y="3" width="2" height="6" fill="#D6D8E5"/>
<rect x="1062" y="3" width="2" height="6" fill="#D6D8E5"/>
<rect x="1070" y="3" width="2" height="6" fill="#D6D8E5"/>
<rect x="1078" y="3" width="2" height="6" fill="#D6D8E5"/>
<rect x="1086" y="3" width="2" height="6" fill="#D6D8E5"/>
<rect x="1094" y="3" width="2" height="6" fill="#D6D8E5"/>
<rect x="1102" y="3" width="2" height="6" fill="#D6D8E5"/>
<rect x="1110" y="3" width="2" height="6" fill="#D6D8E5"/>
<rect x="1118" y="3" width="2" height="6" fill="#D6D8E5"/>
<rect x="1126" y="3" width="2" height="6" fill="#D6D8E5"/>
<rect x="1134" y="3" width="2" height="6" fill="#D6D8E5"/>
<rect x="1142" y="3" width="2" height="6" fill="#D6D8E5"/>
<rect x="1150" y="3" width="2" height="6" fill="#D6D8E5"/>
<rect x="1158" y="3" width="2" height="6" fill="#D6D8E5"/>
<rect x="1166" y="3" width="2" height="6" fill="#D6D8E5"/>
<rect x="1174" y="3" width="2" height="6" fill="#D6D8E5"/>
<rect x="1182" y="3" width="2" height="6" fill="#D6D8E5"/>
<rect x="1190" y="3" width="2" height="6" fill="#D6D8E5"/>
<rect x="1198" y="3" width="2" height="6" fill="#D6D8E5"/>
<rect x="1206" y="3" width="2" height="6" fill="#D6D8E5"/>
<rect x="1214" y="3" width="2" height="6" fill="#D6D8E5"/>
<rect x="1222" y="3" width="2" height="6" fill="#D6D8E5"/>
<rect x="1230" y="3" width="2" height="6" fill="#D6D8E5"/>
<rect x="1238" y="3" width="2" height="6" fill="#D6D8E5"/>
<rect x="1246" y="3" width="2" height="6" fill="#D6D8E5"/>
<rect x="1254" y="3" width="2" height="6" fill="#D6D8E5"/>
<rect x="1262" y="3" width="2" height="6" fill="#D6D8E5"/>
<rect x="1270" y="3" width="2" height="6" fill="#D6D8E5"/>
<rect x="1278" y="3" width="2" height="6" fill="#D6D8E5"/>
<rect x="1286" y="3" width="2" height="6" fill="#D6D8E5"/>
<rect x="1294" y="3" width="2" height="6" fill="#D6D8E5"/>
<rect x="1302" y="3" width="2" height="6" fill="#D6D8E5"/>
<rect x="1310" y="3" width="2" height="6" fill="#D6D8E5"/>
<rect x="1318" y="3" width="2" height="6" fill="#D6D8E5"/>
<rect x="6" y="3" width="562" height="6" fill="#91BE54"/>
<circle cx="6" cy="6" r="6" fill="#91BE54"/>
<circle cx="6" cy="6" r="3" fill="white"/>
<circle cx="446" cy="6" r="6" fill="#91BE54"/>
<circle cx="446" cy="6" r="3" fill="white"/>
<circle cx="926" cy="6" r="6" fill="#91BE54"/>
<circle cx="926" cy="6" r="3" fill="white"/>
<circle cx="1324" cy="6" r="6" fill="#91BE54"/>
<circle cx="1324" cy="6" r="3" fill="white"/>
</svg>
