<svg width="155" height="140" viewBox="0 0 155 140" fill="none" xmlns="http://www.w3.org/2000/svg">
<mask id="mask0" mask-type="alpha" maskUnits="userSpaceOnUse" x="15" y="0" width="140" height="141">
<path d="M155 70C155 86.9513 148.849 103.327 137.689 116.086C126.528 128.845 111.117 137.121 94.3166 139.377C77.5161 141.633 60.4676 137.716 46.3366 128.354C32.2056 118.991 21.9521 104.818 17.48 88.4675C13.0079 72.1167 14.6209 54.6985 22.0197 39.4471C29.4184 24.1956 42.1002 12.1471 57.7103 5.5386C73.3204 -1.06993 90.7983 -1.78947 106.899 3.51358C122.999 8.81662 136.628 19.7819 145.256 34.3736L85 70H155Z" fill="white"/>
</mask>
<g mask="url(#mask0)">
<circle cx="85" cy="70" r="60" stroke="#3967B1" stroke-width="20"/>
</g>
<circle cx="85" cy="70" r="43" stroke="#F4F5FB" stroke-width="10"/>
<mask id="mask1" mask-type="alpha" maskUnits="userSpaceOnUse" x="35" y="20" width="100" height="100">
<path d="M135 70C135 81.249 131.207 92.1693 124.233 100.996C117.26 109.823 107.514 116.04 96.5701 118.643C85.6264 121.246 74.1248 120.083 63.924 115.341C53.7232 110.599 45.4194 102.556 40.3547 92.5121C35.2899 82.4678 33.7602 71.0091 36.0127 59.988C38.2651 48.9669 44.1683 39.0273 52.7679 31.7758C61.3676 24.5242 72.1613 20.3844 83.4045 20.0255C94.6477 19.6665 105.684 23.1094 114.728 29.7976L85 70H135Z" fill="white"/>
</mask>
<g mask="url(#mask1)">
<circle cx="85" cy="70" r="43" stroke="#91BE54" stroke-width="10"/>
</g>
<mask id="mask2" mask-type="alpha" maskUnits="userSpaceOnUse" x="85" y="34" width="70" height="36">
<path d="M155 70C155 57.505 151.656 45.2378 145.314 34.4718L85 70H155Z" fill="white"/>
</mask>
<g mask="url(#mask2)">
<circle cx="85" cy="70" r="60" stroke="#F4F5FB" stroke-width="20"/>
</g>
<rect x="145.202" y="34" width="2" height="20.7247" transform="rotate(59.371 145.202 34)" fill="white"/>
<rect x="113.377" y="31" width="2" height="10.7151" transform="rotate(36.5258 113.377 31)" fill="white"/>
<rect x="123" y="70" width="2" height="32" transform="rotate(-90 123 70)" fill="white"/>
<rect x="44" y="85" width="43" height="1" transform="rotate(180 44 85)" fill="#E0E0E6"/>
<circle cx="1.50011" cy="84.5" r="1.5" transform="rotate(180 1.50011 84.5)" fill="#E0E0E6"/>
<rect width="21.9511" height="1" transform="matrix(0.866025 0.5 0.5 -0.866025 12.0002 34.866)" fill="#E0E0E6"/>
<rect x="13" y="35" width="10" height="1" transform="rotate(180 13 35)" fill="#E0E0E6"/>
<circle cx="1.50008" cy="34.5" r="1.5" transform="rotate(180 1.50008 34.5)" fill="#E0E0E6"/>
</svg>
