<svg width="18" height="19" viewBox="0 0 18 19" fill="none" xmlns="http://www.w3.org/2000/svg">
<rect y="17.543" width="18" height="1" fill="#3967B1"/>
<rect y="14.543" width="1" height="4" rx="0.5" fill="#3967B1"/>
<rect x="17" y="14.543" width="1" height="4" rx="0.5" fill="#3967B1"/>
<path d="M8.56924 14.912C8.56894 14.9117 8.56894 14.9117 8.56864 14.9114L5.4056 11.8325C5.16868 11.6019 5.16959 11.2289 5.40773 10.999C5.64587 10.7695 6.03091 10.7704 6.26783 11.0011L8.39163 13.0685V0.589256C8.39163 0.263692 8.66383 0 8.9999 0C9.33598 0 9.60818 0.263692 9.60818 0.589256V13.0685L11.7317 11.0014C11.9686 10.7707 12.3536 10.7698 12.5918 10.9993C12.8299 11.2289 12.8308 11.6021 12.5939 11.8328L9.43087 14.9117C9.43056 14.912 9.43056 14.912 9.43026 14.9123C9.19273 15.143 8.80617 15.1421 8.56924 14.912Z" fill="#3967B1"/>
</svg>
