<svg width="140" height="140" viewBox="0 0 140 140" fill="none" xmlns="http://www.w3.org/2000/svg">
<mask id="mask0" mask-type="alpha" maskUnits="userSpaceOnUse" x="0" y="0" width="140" height="141">
<path d="M140 70C140 86.9513 133.849 103.327 122.689 116.086C111.528 128.845 96.1172 137.121 79.3166 139.377C62.5161 141.633 45.4676 137.716 31.3366 128.354C17.2056 118.991 6.9521 104.818 2.47998 88.4675C-1.99214 72.1167 -0.379071 54.6985 7.01969 39.4471C14.4184 24.1956 27.1002 12.1471 42.7103 5.5386C58.3204 -1.06993 75.7983 -1.78947 91.8988 3.51358C107.999 8.81662 121.628 19.7819 130.256 34.3736L70 70H140Z" fill="white"/>
</mask>
<g mask="url(#mask0)">
<circle cx="70" cy="70" r="60" stroke="#3967B1" stroke-width="20"/>
</g>
<circle cx="70" cy="70" r="43" stroke="#F4F5FB" stroke-width="10"/>
<mask id="mask1" mask-type="alpha" maskUnits="userSpaceOnUse" x="20" y="20" width="100" height="100">
<path d="M120 70C120 81.249 116.207 92.1693 109.233 100.996C102.26 109.823 92.5137 116.04 81.5701 118.643C70.6264 121.246 59.1248 120.083 48.924 115.341C38.7232 110.599 30.4194 102.556 25.3547 92.5121C20.2899 82.4678 18.7602 71.0091 21.0127 59.988C23.2651 48.9669 29.1683 39.0273 37.7679 31.7758C46.3676 24.5242 57.1613 20.3844 68.4045 20.0255C79.6477 19.6665 90.6835 23.1094 99.7282 29.7976L70 70H120Z" fill="white"/>
</mask>
<g mask="url(#mask1)">
<circle cx="70" cy="70" r="43" stroke="#91BE54" stroke-width="10"/>
</g>
<mask id="mask2" mask-type="alpha" maskUnits="userSpaceOnUse" x="70" y="34" width="70" height="36">
<path d="M140 70C140 57.505 136.656 45.2378 130.314 34.4718L70 70H140Z" fill="white"/>
</mask>
<g mask="url(#mask2)">
<circle cx="70" cy="70" r="60" stroke="#F4F5FB" stroke-width="20"/>
</g>
<rect x="130.202" y="34" width="2" height="20.7247" transform="rotate(59.371 130.202 34)" fill="white"/>
<rect x="98.3774" y="31" width="2" height="10.7151" transform="rotate(36.5258 98.3774 31)" fill="white"/>
<rect x="108" y="70" width="2" height="32" transform="rotate(-90 108 70)" fill="white"/>
</svg>
